<?xml version="1.0" encoding="UTF-8"?>
<svg id="Capa_2" data-name="Capa 2" xmlns="http://www.w3.org/2000/svg" viewBox="0 0 443.05 451.71">
  <defs>
    <style>
      .cls-1 {
        fill: #04D458;
      }

      .cls-1, .cls-2 {
        stroke-width: 0px;
      }

      .cls-2 {
        fill: #FFFBDF;
      }
    </style>
  </defs>
  <g id="HOME">
    <g>
      <polygon class="cls-2" points="273.74 52.99 305.88 52.99 305.88 .25 322.92 .25 332.99 .25 361.44 .25 366.77 .25 388.11 .25 388.11 180.4 361.44 180.4 361.44 27.51 332.99 27.51 332.99 117.58 305.88 117.58 305.88 90.32 268.99 90.32 268.99 63.06 241.74 63.06 241.74 27.51 244.11 27.51 273.74 27.51 273.74 52.99"/>
      <polygon class="cls-2" points="116.4 117.88 116.4 144.25 89.74 144.25 89.74 117.58 116.4 117.58 116.4 117.88"/>
      <polygon class="cls-2" points="244.11 .25 244.11 27.51 241.74 27.51 207.36 27.51 207.36 .25 244.11 .25"/>
      <polygon class="cls-2" points="162.33 451.45 135.22 451.45 54.33 451.45 26.33 451.45 26.33 424.55 26.33 235.82 54.33 235.82 54.33 432.21 142.81 431.67 142.81 255.66 299.7 255.66 299.7 430.57 388.11 429.88 388.11 235.82 414.33 235.82 414.33 424.55 414.33 451.45 388.11 451.45 307.11 451.45 279.11 451.45 278.33 451.45 278.33 424.55 279.11 424.55 279.11 279.66 162.33 279.66 162.33 424.55 162.33 451.45"/>
      <polygon class="cls-2" points="207.36 27.51 207.36 63.06 178.92 63.06 178.92 90.92 143.96 90.92 143.96 90.32 143.96 55.95 169.44 55.95 169.44 27.51 207.36 27.51"/>
      <polygon class="cls-2" points="54.33 180.99 54.33 208.99 27.09 208.99 26.33 208.36 26.33 180.99 54.33 180.99"/>
      <rect class="cls-2" x="54.33" y="144.25" width="34.81" height="36.74"/>
      <polygon class="cls-2" points="116.4 90.32 143.96 90.32 143.96 90.92 143.96 117.88 116.4 117.88 116.4 117.58 116.4 90.32"/>
      <polygon class="cls-2" points="27.09 208.99 27.09 235.19 26.33 235.19 .25 235.19 .25 208.36 26.33 208.36 27.09 208.99"/>
      <polygon class="cls-1" points="142.81 431.67 54.33 432.21 54.33 235.82 26.33 235.82 26.33 235.19 27.09 235.19 27.09 208.99 54.33 208.99 54.33 180.99 89.14 180.99 89.14 144.25 89.74 144.25 116.4 144.25 116.4 117.88 143.96 117.88 143.96 90.92 178.92 90.92 178.92 63.06 207.36 63.06 207.36 27.51 241.74 27.51 241.74 63.06 268.99 63.06 268.99 90.32 305.88 90.32 305.88 117.58 332.99 117.58 332.99 27.51 361.44 27.51 361.44 180.4 388.11 180.4 388.11 207.66 415.07 207.66 415.07 235.39 414.33 235.82 388.11 235.82 388.11 429.88 299.7 430.57 299.7 255.66 142.81 255.66 142.81 431.67"/>
      <polygon class="cls-2" points="415.36 180.4 415.36 207.66 415.07 207.66 388.11 207.66 388.11 180.4 415.36 180.4"/>
      <polygon class="cls-2" points="442.8 207.66 442.8 235.39 415.07 235.39 415.07 207.66 415.36 207.66 442.8 207.66"/>
    </g>
  </g>
</svg>