<?xml version="1.0" encoding="UTF-8"?>
<svg id="Capa_2" data-name="Capa 2" xmlns="http://www.w3.org/2000/svg" viewBox="0 0 443.05 451.71">
  <defs>
    <style>
      .cls-1 {
        fill: #FFFBDF;
        stroke-width: 0px;
      }
    </style>
  </defs>
  <g id="HOME">
    <g>
      <polygon class="cls-1" points="442.8 207.66 442.8 235.4 415.07 235.4 415.07 207.66 415.36 207.66 442.8 207.66"/>
      <polygon class="cls-1" points="415.36 180.4 415.36 207.66 415.07 207.66 388.1 207.66 388.1 180.4 415.36 180.4"/>
      <polygon class="cls-1" points="414.33 424.55 414.33 451.46 388.1 451.46 307.1 451.46 279.1 451.46 278.33 451.46 278.33 424.55 279.1 424.55 279.1 279.66 162.33 279.66 162.33 424.55 162.33 451.46 135.22 451.46 54.33 451.46 26.33 451.46 26.33 424.55 26.33 235.83 54.33 235.83 54.33 432.22 142.81 431.67 142.81 255.66 299.7 255.66 299.7 430.58 388.1 429.88 388.1 235.83 414.33 235.83 414.33 424.55"/>
      <polygon class="cls-1" points="388.1 .25 388.1 180.4 361.44 180.4 361.44 27.51 332.99 27.51 332.99 117.59 305.88 117.59 305.88 90.33 268.99 90.33 268.99 63.07 241.73 63.07 241.73 27.51 244.1 27.51 273.73 27.51 273.73 53 305.88 53 305.88 .25 322.92 .25 332.99 .25 361.44 .25 366.77 .25 388.1 .25"/>
      <polygon class="cls-1" points="244.1 .25 244.1 27.51 241.73 27.51 207.36 27.51 207.36 .25 244.1 .25"/>
      <polygon class="cls-1" points="207.36 27.51 207.36 63.07 178.92 63.07 178.92 90.92 143.96 90.92 143.96 90.33 143.96 55.96 169.44 55.96 169.44 27.51 207.36 27.51"/>
      <polygon class="cls-1" points="143.96 90.92 143.96 117.88 116.4 117.88 116.4 117.59 116.4 90.33 143.96 90.33 143.96 90.92"/>
      <polygon class="cls-1" points="116.4 117.88 116.4 144.25 89.73 144.25 89.73 117.59 116.4 117.59 116.4 117.88"/>
      <rect class="cls-1" x="54.33" y="144.25" width="34.81" height="36.75"/>
      <polygon class="cls-1" points="54.33 181 54.33 209 27.09 209 26.33 208.37 26.33 181 54.33 181"/>
      <polygon class="cls-1" points="27.09 209 27.09 235.2 26.33 235.2 .25 235.2 .25 208.37 26.33 208.37 27.09 209"/>
    </g>
  </g>
</svg>