<?xml version="1.0" encoding="UTF-8"?>
<svg id="Capa_2" data-name="Capa 2" xmlns="http://www.w3.org/2000/svg" viewBox="0 0 368.89 450.43">
  <defs>
    <style>
      .cls-1 {
        fill: #FFFBDF;
        stroke-width: 0px;
      }
    </style>
  </defs>
  <g id="USER">
    <g>
      <rect class="cls-1" x="117.63" width="142.81" height="35.31"/>
      <rect class="cls-1" x="260.44" y="35.31" width="27.85" height="27.85"/>
      <rect class="cls-1" x="288.3" y="63.17" width="28" height="27.11"/>
      <rect class="cls-1" x="316.3" y="90.28" width="26.67" height="144"/>
      <rect class="cls-1" x="288.3" y="234.28" width="28" height="36.3"/>
      <polygon class="cls-1" points="261.63 297.09 225.19 297.09 225.19 324.8 261.63 324.8 275.26 324.8 288.3 324.8 288.3 270.57 261.63 270.57 261.63 297.09"/>
      <rect class="cls-1" x="288.3" y="324.8" width="28" height="26.67"/>
      <rect class="cls-1" x="316.3" y="351.76" width="26.67" height="35.85"/>
      <polygon class="cls-1" points="342.96 387.61 342.96 423.46 27.26 423.46 27.26 387.61 0 387.61 0 450.43 27.26 450.43 342.96 450.43 368.89 450.43 368.89 387.61 342.96 387.61"/>
      <rect class="cls-1" x="27.26" y="351.46" width="36.15" height="36.15"/>
      <rect class="cls-1" x="63.41" y="324.8" width="26.67" height="26.67"/>
      <polygon class="cls-1" points="144.3 324.8 144.3 297.83 117.33 297.83 117.33 270.57 90.07 270.57 90.07 324.8 117.33 324.8 144.3 324.8"/>
      <rect class="cls-1" x="62.81" y="234.28" width="27.26" height="36"/>
      <rect class="cls-1" x="35.85" y="90.28" width="26.96" height="144"/>
      <rect class="cls-1" x="62.81" y="63.17" width="27.11" height="27.11"/>
      <rect class="cls-1" x="90.07" y="35.31" width="27.56" height="27.56"/>
    </g>
  </g>
</svg>