<svg width="370" height="452" viewBox="0 0 370 452" fill="none" xmlns="http://www.w3.org/2000/svg">
<g clip-path="url(#clip0_255_540)">
<path d="M343.824 388.332V424.182H28.1143V388.332H64.2643V352.182H90.9343V325.522H118.194H145.154V298.552H118.194V271.292H90.9343V271.002V235.002H63.6743V91.0017H90.7843V63.8917L90.9343 63.5917H118.484V36.0317H261.304V63.8917H289.154V91.0017H317.154V235.002H289.154V271.292H262.484V297.812H226.044V325.522H262.484H276.114H289.154V352.182H317.154V352.482V388.332H343.824Z" fill="#04D458"/>
<path d="M369.745 388.332V451.152H343.824H28.1145H0.854492V388.332H28.1145V424.182H343.824V388.332H369.745Z" fill="#FFFBDF"/>
<path d="M343.824 352.481H317.154V388.331H343.824V352.481Z" fill="#FFFBDF"/>
<path d="M343.824 91.0015H317.154V235.001H343.824V91.0015Z" fill="#FFFBDF"/>
<path d="M317.154 325.521H289.154V352.181H317.154V325.521Z" fill="#FFFBDF"/>
<path d="M317.154 235.001H289.154V271.291H317.154V235.001Z" fill="#FFFBDF"/>
<path d="M317.154 63.8916H289.154V91.0016H317.154V63.8916Z" fill="#FFFBDF"/>
<path d="M289.155 271.292V325.521H276.115H262.485H226.045V297.811H262.485V271.292H289.155Z" fill="#FFFBDF"/>
<path d="M289.155 36.0317H261.305V63.8917H289.155V36.0317Z" fill="#FFFBDF"/>
<path d="M261.304 0.72168H118.484V36.0317H261.304V0.72168Z" fill="#FFFBDF"/>
<path d="M145.155 298.551V325.521H118.195H90.9346V271.292H118.195V298.551H145.155Z" fill="#FFFBDF"/>
<path d="M118.485 36.0317H90.9346V63.5917H118.485V36.0317Z" fill="#FFFBDF"/>
<path d="M90.9347 325.521H64.2646V352.181H90.9347V325.521Z" fill="#FFFBDF"/>
<path d="M90.9348 235.001H63.6748V271.001H90.9348V235.001Z" fill="#FFFBDF"/>
<path d="M90.7848 63.8916H63.6748V91.0016H90.7848V63.8916Z" fill="#FFFBDF"/>
<path d="M64.2643 352.182H28.1143V388.332H64.2643V352.182Z" fill="#FFFBDF"/>
<path d="M63.6748 91.0015H36.7148V235.001H63.6748V91.0015Z" fill="#FFFBDF"/>
</g>
<defs>
<clipPath id="clip0_255_540">
<rect width="369.39" height="450.93" fill="#FFFBDF" transform="translate(0.604492 0.47168)"/>
</clipPath>
</defs>
</svg>
