<svg width="453" height="460" viewBox="0 0 453 460" fill="none" xmlns="http://www.w3.org/2000/svg">
<g clip-path="url(#clip0_255_558)">
<path d="M452.234 206.062V341.172H425.234V368.282H389.904H389.014V332.062H416.574V215.392H389.014V187.832H360.454V151.392L361.904 150.832H397.454V178.062H426.344V206.062H452.234Z" fill="#FFFBDF"/>
<path d="M416.574 215.392V332.062H389.014V368.282H361.904V396.332H309.134L309.244 431.832H209.914V396.492H236.804V369.332L146.694 369.382V369.232H147.144V340.662H118.574V206.062H146.574V178.612H181.904V151.392H360.454V187.832H389.014V215.392H416.574ZM370.794 252.762V232.862H361.684V225.972H181.124V232.862H172.234V252.762H181.124V259.642H361.684V252.762H370.794ZM307.494 307.052L307.424 292.642H298.454V285.862H181.124V292.642H172.234V306.702H181.124V314.082L298.454 314.002V307.052H307.494Z" fill="#04D458"/>
<path d="M389.904 368.282V396.282L362.024 396.332H361.904V368.282H389.014H389.904Z" fill="#FFFBDF"/>
<path d="M370.794 232.862V252.762H361.684V259.642H181.124V252.762H172.234V232.862H181.124V225.972H361.684V232.862H370.794Z" fill="#FFFBDF"/>
<path d="M362.025 396.332V431.832H309.245L309.135 396.332H361.905H362.025Z" fill="#FFFBDF"/>
<path d="M361.904 126.502V150.832L360.454 151.392H181.904V178.612H146.574L144.574 178.062V150.832H172.574V123.832H333.454V91.052H306.904V63.792H334.164V87.832H361.904V123.832V126.502Z" fill="#FFFBDF"/>
<path d="M333.455 91.0518V123.832H172.575V150.832H144.575V178.062H118.575V206.062H90.7949V243.972H63.9449V217.792H27.7949V91.0518V90.6018H55.4549V63.7918H90.6849V28.5718L91.1949 27.3818H271.345V62.9418H306.905V63.7918V91.0518H333.455Z" fill="#04D458"/>
<path d="M309.244 431.832V459.552H180.284V396.492H146.694V369.382L236.804 369.332V396.492H209.914V431.832H309.244Z" fill="#FFFBDF"/>
<path d="M307.424 292.642L307.494 307.052H298.454V314.002L181.124 314.082V306.702H172.234V292.642H181.124V285.862H298.454V292.642H307.424Z" fill="#FFFBDF"/>
<path d="M306.905 27.3818H271.345V62.9418H306.905V27.3818Z" fill="#FFFBDF"/>
<path d="M271.344 0.711914H91.1943V27.3819H271.344V0.711914Z" fill="#FFFBDF"/>
<path d="M147.144 340.662V369.232H146.694H118.574V341.062V340.662H147.144Z" fill="#FFFBDF"/>
<path d="M146.574 178.612V206.062H118.574V178.062H144.574L146.574 178.612Z" fill="#FFFBDF"/>
<path d="M118.575 340.662V341.062H90.7949V279.422H55.3449V253.942H27.7949V218.792V217.792H63.9449V243.972H90.7949V206.062H118.575V340.662Z" fill="#FFFBDF"/>
<path d="M90.6841 28.5718V63.7918H55.4541V62.9418V28.5718H90.6841Z" fill="#FFFBDF"/>
<path d="M55.4549 63.7919V90.6019H27.7949V62.9419H55.4549V63.7919Z" fill="#FFFBDF"/>
<path d="M27.7945 217.792V218.792H0.854492V91.0518H27.7945V217.792Z" fill="#FFFBDF"/>
</g>
<defs>
<clipPath id="clip0_255_558">
<rect width="451.88" height="459.33" fill="#FFFBDF" transform="translate(0.604492 0.461914)"/>
</clipPath>
</defs>
</svg>
