<?xml version="1.0" encoding="UTF-8"?>
<svg id="Capa_2" data-name="Capa 2" xmlns="http://www.w3.org/2000/svg" viewBox="0 0 451.88 459.33">
  <defs>
    <style>
      .cls-1 {
        fill: #FFFBDF;
        stroke: #fff;
        stroke-linecap: round;
        stroke-linejoin: round;
        stroke-width: .5px;
      }
    </style>
  </defs>
  <g id="CHAT">
    <g>
      <rect class="cls-1" x="90.59" y=".25" width="180.15" height="26.67"/>
      <rect class="cls-1" x="270.74" y="26.92" width="35.56" height="35.56"/>
      <polygon class="cls-1" points="171.63 306.24 180.52 306.24 180.52 313.62 297.85 313.53 297.85 306.59 306.89 306.59 306.81 292.17 297.85 292.17 297.85 285.4 180.52 285.4 180.52 292.17 171.63 292.17 171.63 306.24"/>
      <polygon class="cls-1" points="180.52 225.51 180.52 232.39 171.63 232.39 171.63 252.29 180.52 252.29 180.52 259.18 361.07 259.18 361.07 252.29 370.18 252.29 370.18 232.39 361.07 232.39 361.07 225.51 180.52 225.51"/>
      <polygon class="cls-1" points="54.85 63.32 90.07 63.32 90.07 28.1 54.85 28.1 54.85 62.47 27.18 62.47 27.18 90.14 54.85 90.14 54.85 63.32"/>
      <polygon class="cls-1" points="425.74 205.59 425.74 177.59 396.85 177.59 396.85 150.37 361.3 150.37 361.3 126.04 361.3 123.37 361.3 87.37 333.55 87.37 333.55 63.32 306.3 63.32 306.3 90.58 332.85 90.58 332.85 123.37 171.96 123.37 171.96 150.37 143.96 150.37 143.96 177.59 117.96 177.59 117.96 205.59 145.96 205.59 145.96 178.15 181.3 178.15 181.3 150.93 359.85 150.93 359.85 187.37 388.41 187.37 388.41 214.93 415.96 214.93 415.96 331.59 388.41 331.59 388.41 367.81 361.3 367.81 361.3 395.86 389.3 395.81 389.3 367.81 424.63 367.81 424.63 340.7 451.63 340.7 451.63 205.59 425.74 205.59"/>
      <polygon class="cls-1" points="90.19 243.51 63.33 243.51 63.33 217.32 27.18 217.32 27.18 90.58 .25 90.58 .25 218.32 27.18 218.32 27.18 253.47 54.74 253.47 54.74 278.95 90.19 278.95 90.19 340.59 117.96 340.59 117.96 368.77 146.54 368.77 146.54 340.19 117.96 340.19 117.96 205.59 90.19 205.59 90.19 243.51"/>
      <polygon class="cls-1" points="308.64 431.36 361.42 431.36 361.42 395.86 361.3 395.86 308.53 395.86 308.64 431.36"/>
      <polygon class="cls-1" points="209.31 396.03 236.2 396.03 236.2 368.86 146.08 368.92 146.08 396.03 179.68 396.03 179.68 459.08 308.64 459.08 308.64 431.36 209.31 431.36 209.31 396.03"/>
    </g>
  </g>
</svg>