<svg width="382" height="429" viewBox="0 0 382 429" fill="none" xmlns="http://www.w3.org/2000/svg">
<path d="M276.305 262.101H311.305V298.261H346.305V360.541H35.8545V304.731H70.8545V268.261H105.854V66.9814H276.305V262.101ZM276.305 262.651H241.304V297.651H276.305V262.651Z" fill="#04D458"/>
<path d="M381.305 360.541V395.541H346.305H266.194V428.541H115.974V395.541H0.854492V364.151V360.541V305.041H35.8545V360.541H346.305V298.261V298.211H381.305V360.541Z" fill="#FFFBDF"/>
<path d="M346.305 298.211V298.261H311.305V262.102V262.042H346.305V298.211Z" fill="#FFFBDF"/>
<path d="M311.305 262.041V262.101H276.305V66.9814H311.305V262.041Z" fill="#FFFBDF"/>
<path d="M276.305 262.651H241.305V297.651H276.305V262.651Z" fill="#FFFBDF"/>
<path d="M276.305 31.9814V66.9814H105.854V31.9814H162.634V0.651367H219.524V31.9814H276.305Z" fill="#FFFBDF"/>
<path d="M105.854 66.9814H70.8545V268.261H105.854V66.9814Z" fill="#FFFBDF"/>
<path d="M70.8545 268.461H35.8545V304.731H70.8545V268.461Z" fill="#FFFBDF"/>
</svg>
