<svg width="443" height="453" viewBox="0 0 443 453" fill="none" xmlns="http://www.w3.org/2000/svg">
<g clip-path="url(#clip0_255_576)">
<path d="M414.035 199.021V261.251H360.405V343.321H388.185V397.101H343.075V370.211H253.745V424.211H189.745V370.211H99.5246V397.101H54.6346V343.321H80.8546V261.251H26.1846V199.021H80.8546V109.541H54.6346V63.9115H99.9646V90.4315H163.525V90.5815H190.035V37.2515H252.265V90.5815H332.855V63.9115H387.965V109.541H360.405V199.021H414.035ZM325.155 280.501V181.541H298.035V154.281H271.155V126.431H171.665V154.471H144.855V181.541H117.965V280.501H144.855V307.471H171.815V334.881H271.225V307.541H298.035V280.501H325.155Z" fill="#04D458"/>
<path d="M442.484 199.021V261.251H415.964H414.034V199.021H442.484Z" fill="#FFFBDF"/>
<path d="M415.965 343.321H388.185V397.101H415.965V343.321Z" fill="#FFFBDF"/>
<path d="M415.964 261.251V289.541H388.184V343.321H360.404V289.541V261.251H388.184H414.034H415.964Z" fill="#FFFBDF"/>
<path d="M414.034 171.762V199.021H387.964H377.894H360.404V109.542H387.964V171.762H414.034Z" fill="#FFFBDF"/>
<path d="M414.035 63.9116H387.965V109.542H414.035V63.9116Z" fill="#FFFBDF"/>
<path d="M387.964 397.102H343.074V424.212H387.964V397.102Z" fill="#FFFBDF"/>
<path d="M387.964 28.9517H332.854V63.9117H387.964V28.9517Z" fill="#FFFBDF"/>
<path d="M343.074 370.211V397.101H279.964V424.211H253.744V397.101V377.991V370.211H343.074Z" fill="#FFFBDF"/>
<path d="M332.855 63.9115V90.5815H279.525H262.925H252.265V37.2515H279.525V63.9115H332.855Z" fill="#FFFBDF"/>
<path d="M325.154 181.542H298.034V280.501H325.154V181.542Z" fill="#FFFBDF"/>
<path d="M298.035 280.731H271.225V307.541H298.035V280.731Z" fill="#FFFBDF"/>
<path d="M298.034 154.282H271.154V181.542H298.034V154.282Z" fill="#FFFBDF"/>
<path d="M271.224 307.542H171.814V334.882H271.224V307.542Z" fill="#FFFBDF"/>
<path d="M271.154 126.432H171.664V153.392H271.154V126.432Z" fill="#FFFBDF"/>
<path d="M253.744 424.211H189.744V452.211H253.744V424.211Z" fill="#FFFBDF"/>
<path d="M252.264 1.0415H190.034V37.2515H252.264V1.0415Z" fill="#FFFBDF"/>
<path d="M190.035 37.2515V90.5815H163.525V90.4315H99.9648V63.9115H163.525V37.2515H190.035Z" fill="#FFFBDF"/>
<path d="M189.744 370.211V423.761H162.634V396.991H99.5244V370.211H162.634H168.404H189.744Z" fill="#FFFBDF"/>
<path d="M171.814 280.501H144.854V307.471H171.814V280.501Z" fill="#FFFBDF"/>
<path d="M171.664 154.472H144.854V181.282H171.664V154.472Z" fill="#FFFBDF"/>
<path d="M144.855 181.542H117.965V280.501H144.855V181.542Z" fill="#FFFBDF"/>
<path d="M99.9648 28.9517H54.6348V63.9117H99.9648V28.9517Z" fill="#FFFBDF"/>
<path d="M99.5248 397.102H54.6348V424.212H99.5248V397.102Z" fill="#FFFBDF"/>
<path d="M80.8546 261.251V343.321H54.6346V289.541H26.1846V261.251H54.6346H69.2946H80.8546Z" fill="#FFFBDF"/>
<path d="M80.8546 109.542V199.021H58.6346H54.6346H26.1846V171.762H54.6346V109.542H80.8546Z" fill="#FFFBDF"/>
<path d="M54.6348 343.321H27.9648V397.101H54.6348V343.321Z" fill="#FFFBDF"/>
<path d="M54.6348 63.9116H27.9648V109.542H54.6348V63.9116Z" fill="#FFFBDF"/>
<path d="M26.1845 199.021H0.854492V261.251H26.1845V199.021Z" fill="#FFFBDF"/>
</g>
<defs>
<clipPath id="clip0_255_576">
<rect width="442.13" height="451.67" fill="#FFFBDF" transform="translate(0.604492 0.791504)"/>
</clipPath>
</defs>
</svg>
