<?xml version="1.0" encoding="UTF-8"?>
<svg id="Capa_2" data-name="Capa 2" xmlns="http://www.w3.org/2000/svg" viewBox="0 0 441.63 451.17">
  <defs>
    <style>
      .cls-1 {
        fill: #FFFBDF;
        stroke-width: 0px;
      }
    </style>
  </defs>
  <g id="confi">
    <g>
      <rect class="cls-1" x="189.19" width="62.22" height="36.2"/>
      <polygon class="cls-1" points="278.67 36.2 251.41 36.2 251.41 89.54 262.07 89.54 278.67 89.54 332 89.54 332 62.87 278.67 62.87 278.67 36.2"/>
      <rect class="cls-1" x="332" y="27.91" width="55.11" height="34.96"/>
      <rect class="cls-1" x="387.11" y="62.87" width="26.07" height="45.63"/>
      <polygon class="cls-1" points="387.11 170.72 387.11 108.5 359.56 108.5 359.56 197.98 377.04 197.98 387.11 197.98 413.19 197.98 413.19 170.72 387.11 170.72"/>
      <polygon class="cls-1" points="413.19 197.98 413.19 260.2 387.33 260.2 359.56 260.2 359.56 288.5 359.56 342.28 387.33 342.28 387.33 288.5 415.11 288.5 415.11 260.2 441.63 260.2 441.63 197.98 413.19 197.98"/>
      <rect class="cls-1" x="387.33" y="342.28" width="27.78" height="53.78"/>
      <rect class="cls-1" x="342.22" y="396.06" width="44.89" height="27.11"/>
      <polygon class="cls-1" points="252.89 369.17 252.89 376.94 252.89 396.06 252.89 423.17 279.11 423.17 279.11 396.06 342.22 396.06 342.22 369.17 252.89 369.17"/>
      <rect class="cls-1" x="188.89" y="423.17" width="64" height="28"/>
      <polygon class="cls-1" points="188.89 422.72 188.89 369.17 167.56 369.17 161.78 369.17 98.67 369.17 98.67 395.94 161.78 395.94 161.78 422.72 188.89 422.72"/>
      <rect class="cls-1" x="53.78" y="396.06" width="44.89" height="27.11"/>
      <rect class="cls-1" x="27.11" y="342.28" width="26.67" height="53.78"/>
      <polygon class="cls-1" points="53.78 288.5 53.78 342.28 80 342.28 80 260.2 68.44 260.2 53.78 260.2 25.33 260.2 25.33 288.5 53.78 288.5"/>
      <rect class="cls-1" y="197.98" width="25.33" height="62.22"/>
      <polygon class="cls-1" points="25.33 170.72 25.33 197.98 53.78 197.98 57.78 197.98 80 197.98 80 108.5 53.78 108.5 53.78 170.72 25.33 170.72"/>
      <rect class="cls-1" x="27.11" y="62.87" width="26.67" height="45.63"/>
      <rect class="cls-1" x="53.78" y="27.91" width="45.33" height="34.96"/>
      <polygon class="cls-1" points="162.67 62.87 99.11 62.87 99.11 89.39 162.67 89.39 162.67 89.54 189.19 89.54 189.19 36.2 162.67 36.2 162.67 62.87"/>
      <rect class="cls-1" x="170.81" y="125.39" width="99.48" height="26.96"/>
      <rect class="cls-1" x="297.19" y="180.5" width="27.11" height="98.96"/>
      <rect class="cls-1" x="270.3" y="153.24" width="26.89" height="27.26"/>
      <rect class="cls-1" x="270.37" y="279.69" width="26.81" height="26.81"/>
      <rect class="cls-1" x="170.96" y="306.5" width="99.41" height="27.33"/>
      <rect class="cls-1" x="117.11" y="180.5" width="26.89" height="98.96"/>
      <rect class="cls-1" x="144" y="153.43" width="26.81" height="26.81"/>
      <rect class="cls-1" x="144" y="279.46" width="26.96" height="26.96"/>
    </g>
  </g>
</svg>